<?xml version="1.0" standalone="no"?>
<!DOCTYPE svg PUBLIC "-//W3C//DTD SVG 20010904//EN"
 "http://www.w3.org/TR/2001/REC-SVG-20010904/DTD/svg10.dtd">
<svg version="1.0" xmlns="http://www.w3.org/2000/svg"
 width="320.000000pt" height="320.000000pt" viewBox="0 0 320.000000 320.000000"
 preserveAspectRatio="xMidYMid meet" style="background-color: #f1f1f1">

<g transform="translate(0.000000,320.000000) scale(0.100000,-0.100000)"
fill="#000000" stroke="none">
<path d="M0 1600 l0 -1600 635 0 c417 0 635 3 635 10 0 6 7 10 15 10 8 0 15
-5 15 -10 0 -7 165 -10 494 -9 403 1 494 3 490 14 -3 7 -1 16 5 20 7 3 11 -2
11 -14 0 -18 8 -19 151 -20 132 -2 151 0 146 14 -4 8 -2 15 2 15 5 0 17 3 26
7 15 5 16 3 6 -15 l-12 -22 291 0 290 0 0 1600 0 1600 -1600 0 -1600 0 0
-1600z m1760 685 c0 -43 1 -45 30 -45 23 0 30 -4 30 -20 0 -16 -7 -20 -30 -20
-30 0 -30 -1 -30 -55 l0 -55 -59 0 c-56 0 -58 -1 -58 -25 0 -24 2 -25 58 -25
l59 0 0 -205 0 -205 90 0 c83 0 90 -1 90 -20 0 -19 -7 -20 -90 -20 l-90 0 0
-215 0 -215 -41 0 c-36 0 -41 -3 -36 -19 4 -15 0 -19 -17 -17 -12 1 -28 6 -35
10 -8 5 -16 4 -21 -4 -5 -8 -9 -7 -14 5 -5 14 -9 15 -22 4 -12 -9 -17 -10 -23
-1 -4 6 -23 11 -42 10 -20 -1 -41 2 -47 6 -7 4 -12 0 -13 -11 -3 -47 -17 52
-18 130 l-1 87 35 0 c31 0 35 3 35 25 0 22 -4 25 -35 25 l-35 0 0 244 0 244
-111 -45 c-61 -25 -114 -41 -119 -37 -7 9 -90 243 -90 256 0 4 17 12 38 18 20
7 79 34 130 61 52 28 106 49 123 49 17 0 42 9 55 19 l25 20 -22 3 c-20 3 -15
9 32 45 l54 42 108 0 107 1 0 -45z m377 -887 c-3 -8 -6 -5 -6 6 -1 11 2 17 5
13 3 -3 4 -12 1 -19z m-331 -279 c4 -8 0 -9 -15 -4 -14 4 -23 1 -27 -9 -3 -9
-11 -16 -16 -16 -6 0 -6 6 1 14 10 12 7 15 -21 19 -24 3 -18 4 19 5 29 1 55
-3 59 -9z m-339 -21 c-3 -8 -6 -5 -6 6 -1 11 2 17 5 13 3 -3 4 -12 1 -19z
m227 3 c3 -5 -1 -11 -9 -15 -15 -6 -29 7 -18 18 9 9 21 8 27 -3z m794 -109 c2
-7 -3 -12 -12 -12 -9 0 -16 7 -16 16 0 17 22 14 28 -4z m592 -62 c0 -5 -4 -10
-10 -10 -5 0 -10 5 -10 10 0 6 5 10 10 10 6 0 10 -4 10 -10z m-703 -52 c-3 -8
-6 -5 -6 6 -1 11 2 17 5 13 3 -3 4 -12 1 -19z m-1390 6 c-3 -3 -12 -4 -19 -1
-8 3 -5 6 6 6 11 1 17 -2 13 -5z m-27 -109 c0 -8 -7 -15 -15 -15 -8 0 -15 7
-15 15 0 8 7 15 15 15 8 0 15 -7 15 -15z m2100 5 c0 -5 -4 -10 -10 -10 -5 0
-10 5 -10 10 0 6 5 10 10 10 6 0 10 -4 10 -10z m67 -52 c-3 -8 -6 -5 -6 6 -1
11 2 17 5 13 3 -3 4 -12 1 -19z m-1787 -8 c0 -5 -2 -10 -4 -10 -3 0 -8 5 -11
10 -3 6 -1 10 4 10 6 0 11 -4 11 -10z m1040 -10 c0 -5 -2 -10 -4 -10 -3 0 -8
5 -11 10 -3 6 -1 10 4 10 6 0 11 -4 11 -10z m-992 -44 c3 -13 -1 -17 -14 -14
-11 2 -20 11 -22 22 -3 13 1 17 14 14 11 -2 20 -11 22 -22z m62 -16 c0 -5 -4
-10 -10 -10 -5 0 -10 5 -10 10 0 6 5 10 10 10 6 0 10 -4 10 -10z m-560 -20 c0
-5 -4 -10 -10 -10 -5 0 -10 5 -10 10 0 6 5 10 10 10 6 0 10 -4 10 -10z m187
-32 c-3 -8 -6 -5 -6 6 -1 11 2 17 5 13 3 -3 4 -12 1 -19z m53 2 c0 -5 -7 -10
-15 -10 -8 0 -15 5 -15 10 0 6 7 10 15 10 8 0 15 -4 15 -10z m-683 -72 c-3 -8
-6 -5 -6 6 -1 11 2 17 5 13 3 -3 4 -12 1 -19z m185 -53 c0 -5 -5 -11 -11 -13
-6 -2 -11 4 -11 13 0 9 5 15 11 13 6 -2 11 -8 11 -13z m578 -10 c0 -8 -4 -15
-10 -15 -5 0 -10 7 -10 15 0 8 5 15 10 15 6 0 10 -7 10 -15z m400 -1 c0 -8 -4
-12 -10 -9 -5 3 -10 10 -10 16 0 5 5 9 10 9 6 0 10 -7 10 -16z m890 -4 c0 -5
-7 -10 -15 -10 -8 0 -15 5 -15 10 0 6 7 10 15 10 8 0 15 -4 15 -10z m-595 -9
c3 -5 1 -12 -5 -16 -5 -3 -10 1 -10 9 0 18 6 21 15 7z m-1010 -11 c3 -5 1 -10
-4 -10 -6 0 -11 5 -11 10 0 6 2 10 4 10 3 0 8 -4 11 -10z m1712 -52 c-3 -8 -6
-5 -6 6 -1 11 2 17 5 13 3 -3 4 -12 1 -19z m-217 -33 c0 -8 -4 -15 -9 -15 -13
0 -22 16 -14 24 11 11 23 6 23 -9z m-273 -17 c-3 -8 -6 -5 -6 6 -1 11 2 17 5
13 3 -3 4 -12 1 -19z m23 -42 c0 -8 -4 -18 -10 -21 -5 -3 -10 3 -10 14 0 12 5
21 10 21 6 0 10 -6 10 -14z m-1775 -6 c-3 -5 -10 -10 -16 -10 -5 0 -9 5 -9 10
0 6 7 10 16 10 8 0 12 -4 9 -10z m445 0 c0 -5 -5 -10 -11 -10 -5 0 -7 5 -4 10
3 6 8 10 11 10 2 0 4 -4 4 -10z m1090 -6 c0 -8 -4 -12 -10 -9 -5 3 -10 10 -10
16 0 5 5 9 10 9 6 0 10 -7 10 -16z m-1850 -24 c0 -5 -4 -10 -10 -10 -5 0 -10
5 -10 10 0 6 5 10 10 10 6 0 10 -4 10 -10z m1530 -25 c0 -8 -4 -15 -10 -15 -5
0 -10 7 -10 15 0 8 5 15 10 15 6 0 10 -7 10 -15z m1160 0 c10 -12 10 -18 0
-30 -16 -20 -44 -19 -61 1 -11 14 -10 18 6 30 24 18 39 18 55 -1z m-1840 -5
c0 -5 -7 -10 -15 -10 -8 0 -15 5 -15 10 0 6 7 10 15 10 8 0 15 -4 15 -10z
m-800 -20 c0 -5 -4 -10 -10 -10 -5 0 -10 5 -10 10 0 6 5 10 10 10 6 0 10 -4
10 -10z m1740 -20 c0 -11 -4 -20 -10 -20 -5 0 -10 9 -10 20 0 11 5 20 10 20 6
0 10 -9 10 -20z m-870 0 c0 -5 -4 -10 -10 -10 -5 0 -10 5 -10 10 0 6 5 10 10
10 6 0 10 -4 10 -10z m-173 -42 c-3 -7 -5 -2 -5 12 0 14 2 19 5 13 2 -7 2 -19
0 -25z m-400 -4 c-9 -9 -28 6 -21 18 4 6 10 6 17 -1 6 -6 8 -13 4 -17z m1178
-3 c3 -5 1 -13 -5 -16 -15 -9 -43 3 -35 15 8 13 32 13 40 1z m-975 -16 c0 -8
-7 -15 -15 -15 -8 0 -15 7 -15 15 0 8 7 15 15 15 8 0 15 -7 15 -15z m90 6 c3
-1 -2 -5 -10 -10 -15 -10 -30 -6 -30 9 0 4 8 7 18 5 9 -2 19 -4 22 -4z m-140
-16 c0 -8 -6 -15 -14 -15 -17 0 -28 14 -19 24 12 12 33 6 33 -9z m2530 -16 c0
-10 -4 -19 -10 -19 -5 0 -10 12 -10 26 0 14 4 23 10 19 6 -3 10 -15 10 -26z
m-2390 -10 c0 -11 -4 -18 -10 -14 -5 3 -7 12 -3 20 7 21 13 19 13 -6z m-470
-54 c0 -8 -7 -15 -15 -15 -8 0 -15 7 -15 15 0 8 7 15 15 15 8 0 15 -7 15 -15z
m2675 -5 c3 -5 -1 -10 -9 -10 -9 0 -16 5 -16 10 0 6 4 10 9 10 6 0 13 -4 16
-10z"/>
<path d="M1675 1610 c-4 -6 12 -10 39 -10 25 0 46 5 46 10 0 6 -18 10 -39 10
-22 0 -43 -4 -46 -10z"/>
<path d="M1661 1508 c-1 -37 3 -58 12 -61 9 -4 8 -8 -3 -17 -12 -10 -10 -11
10 -6 14 3 33 6 43 6 9 0 17 5 17 10 0 6 -9 10 -19 10 -26 0 -51 10 -51 21 0
5 16 9 36 9 21 0 33 4 29 10 -3 6 -19 10 -36 10 -16 0 -29 5 -29 10 0 6 6 10
13 9 33 -4 57 2 57 16 0 18 -16 20 -23 3 -4 -10 -8 -9 -16 2 -7 10 -11 11 -11
3 0 -19 -18 -16 -23 5 -3 9 -5 -8 -6 -40z"/>
<path d="M1683 1402 c-15 -2 -23 -10 -23 -23 0 -16 7 -19 40 -19 33 0 40 4 40
19 0 20 -21 29 -57 23z m37 -22 c0 -5 -4 -10 -10 -10 -5 0 -10 5 -10 10 0 6 5
10 10 10 6 0 10 -4 10 -10z"/>
</g>
</svg>
